<svg xmlns="http://www.w3.org/2000/svg" xmlns:xlink="http://www.w3.org/1999/xlink" viewBox="305 505 814 490" preserveAspectRatio="xMidYMid meet" version="1.0"><defs><g/><clipPath id="bc83b01a31"><path d="M 324.917969 525 L 774.917969 525 L 774.917969 975 L 324.917969 975 Z M 324.917969 525 " clip-rule="nonzero"/></clipPath><clipPath id="a8f68d0d3c"><path d="M 549.917969 525 C 425.65625 525 324.917969 625.734375 324.917969 750 C 324.917969 874.265625 425.65625 975 549.917969 975 C 674.183594 975 774.917969 874.265625 774.917969 750 C 774.917969 625.734375 674.183594 525 549.917969 525 Z M 549.917969 525 " clip-rule="nonzero"/></clipPath><clipPath id="5ff41387c0"><path d="M 0.917969 0 L 450.917969 0 L 450.917969 450 L 0.917969 450 Z M 0.917969 0 " clip-rule="nonzero"/></clipPath><clipPath id="267585f292"><path d="M 225.917969 0 C 101.65625 0 0.917969 100.734375 0.917969 225 C 0.917969 349.265625 101.65625 450 225.917969 450 C 350.183594 450 450.917969 349.265625 450.917969 225 C 450.917969 100.734375 350.183594 0 225.917969 0 Z M 225.917969 0 " clip-rule="nonzero"/></clipPath><clipPath id="ae28e05308"><rect x="0" width="451" y="0" height="450"/></clipPath><clipPath id="1a3b3a8834"><rect x="0" width="687" y="0" height="133"/></clipPath></defs><g clip-path="url(#bc83b01a31)"><g clip-path="url(#a8f68d0d3c)"><g transform="matrix(1, 0, 0, 1, 324, 525)"><g clip-path="url(#ae28e05308)"><g clip-path="url(#5ff41387c0)"><g clip-path="url(#267585f292)"><path fill="#f4cfd1" d="M 0.917969 0 L 450.917969 0 L 450.917969 450 L 0.917969 450 Z M 0.917969 0 " fill-opacity="1" fill-rule="nonzero"/></g></g></g></g></g></g><g transform="matrix(1, 0, 0, 1, 412, 701)"><g clip-path="url(#1a3b3a8834)"><g fill="#000000" fill-opacity="1"><g transform="translate(0.575379, 97.927249)"><g><path d="M 27.5 -93.453125 C 35.15625 -93.453125 40.695312 -91.671875 44.125 -88.109375 C 47.550781 -84.554688 49.265625 -79.175781 49.265625 -71.96875 L 49.265625 -68.625 C 49.265625 -63.820312 48.507812 -59.863281 47 -56.75 C 45.488281 -53.632812 43.082031 -51.316406 39.78125 -49.796875 C 43.789062 -48.285156 46.617188 -45.816406 48.265625 -42.390625 C 49.910156 -38.960938 50.734375 -34.757812 50.734375 -29.78125 L 50.734375 -22.15625 C 50.734375 -14.945312 48.863281 -9.453125 45.125 -5.671875 C 41.382812 -1.890625 35.820312 0 28.4375 0 L 5.34375 0 L 5.34375 -93.453125 Z M 20.03125 -42.0625 L 20.03125 -13.34375 L 28.4375 -13.34375 C 30.925781 -13.34375 32.816406 -14.007812 34.109375 -15.34375 C 35.398438 -16.6875 36.046875 -19.09375 36.046875 -22.5625 L 36.046875 -30.703125 C 36.046875 -35.066406 35.3125 -38.050781 33.84375 -39.65625 C 32.375 -41.257812 29.945312 -42.0625 26.5625 -42.0625 Z M 20.03125 -80.109375 L 20.03125 -55.40625 L 25.765625 -55.40625 C 28.523438 -55.40625 30.679688 -56.117188 32.234375 -57.546875 C 33.796875 -58.972656 34.578125 -61.554688 34.578125 -65.296875 L 34.578125 -70.5 C 34.578125 -73.875 33.972656 -76.316406 32.765625 -77.828125 C 31.566406 -79.347656 29.679688 -80.109375 27.109375 -80.109375 Z M 20.03125 -80.109375 "/></g></g></g><g fill="#000000" fill-opacity="1"><g transform="translate(61.057839, 97.927249)"><g><path d="M 20.03125 -54.078125 L 40.1875 -54.078125 L 40.1875 -40.71875 L 20.03125 -40.71875 L 20.03125 -13.34375 L 45.390625 -13.34375 L 45.390625 0 L 5.34375 0 L 5.34375 -93.453125 L 45.390625 -93.453125 L 45.390625 -80.109375 L 20.03125 -80.109375 Z M 20.03125 -54.078125 "/></g></g></g><g fill="#000000" fill-opacity="1"><g transform="translate(116.466782, 97.927249)"><g><path d="M 52.875 0 L 38.046875 0 L 35.515625 -16.953125 L 17.484375 -16.953125 L 14.953125 0 L 1.46875 0 L 16.421875 -93.453125 L 37.921875 -93.453125 Z M 19.359375 -29.640625 L 33.515625 -29.640625 L 26.4375 -76.90625 Z M 19.359375 -29.640625 "/></g></g></g><g fill="#000000" fill-opacity="1"><g transform="translate(177.082759, 97.927249)"><g><path d="M 19.359375 -93.453125 L 19.359375 -21.359375 C 19.359375 -17.972656 20.046875 -15.613281 21.421875 -14.28125 C 22.804688 -12.945312 24.65625 -12.28125 26.96875 -12.28125 C 29.28125 -12.28125 31.125 -12.945312 32.5 -14.28125 C 33.882812 -15.613281 34.578125 -17.972656 34.578125 -21.359375 L 34.578125 -93.453125 L 48.46875 -93.453125 L 48.46875 -22.296875 C 48.46875 -14.734375 46.617188 -8.925781 42.921875 -4.875 C 39.234375 -0.820312 33.78125 1.203125 26.5625 1.203125 C 19.351562 1.203125 13.898438 -0.820312 10.203125 -4.875 C 6.515625 -8.925781 4.671875 -14.734375 4.671875 -22.296875 L 4.671875 -93.453125 Z M 19.359375 -93.453125 "/></g></g></g><g fill="#000000" fill-opacity="1"><g transform="translate(236.497116, 97.927249)"><g><path d="M 1.328125 -93.453125 L 46.734375 -93.453125 L 46.734375 -80.109375 L 31.375 -80.109375 L 31.375 0 L 16.6875 0 L 16.6875 -80.109375 L 1.328125 -80.109375 Z M 1.328125 -93.453125 "/></g></g></g><g fill="#000000" fill-opacity="1"><g transform="translate(290.837916, 97.927249)"><g><path d="M 19.09375 -30.96875 L 0.53125 -93.453125 L 15.890625 -93.453125 L 27.109375 -50.875 L 38.3125 -93.453125 L 52.34375 -93.453125 L 33.78125 -30.96875 L 33.78125 0 L 19.09375 0 Z M 19.09375 -30.96875 "/></g></g></g><g fill="#000000" fill-opacity="1"><g transform="translate(349.985237, 97.927249)"><g/></g></g><g fill="#000000" fill-opacity="1"><g transform="translate(376.955648, 97.927249)"><g><path d="M 3.46875 -71.03125 C 3.46875 -78.59375 5.269531 -84.398438 8.875 -88.453125 C 12.476562 -92.503906 17.882812 -94.53125 25.09375 -94.53125 C 32.3125 -94.53125 37.722656 -92.503906 41.328125 -88.453125 C 44.929688 -84.398438 46.734375 -78.59375 46.734375 -71.03125 L 46.734375 -67.421875 L 32.84375 -67.421875 L 32.84375 -71.96875 C 32.84375 -75.34375 32.195312 -77.71875 30.90625 -79.09375 C 29.613281 -80.476562 27.8125 -81.171875 25.5 -81.171875 C 23.1875 -81.171875 21.382812 -80.476562 20.09375 -79.09375 C 18.800781 -77.71875 18.15625 -75.34375 18.15625 -71.96875 C 18.15625 -68.757812 18.867188 -65.929688 20.296875 -63.484375 C 21.722656 -61.035156 23.503906 -58.71875 25.640625 -56.53125 C 27.773438 -54.351562 30.066406 -52.175781 32.515625 -50 C 34.960938 -47.820312 37.253906 -45.441406 39.390625 -42.859375 C 41.523438 -40.273438 43.300781 -37.335938 44.71875 -34.046875 C 46.144531 -30.753906 46.859375 -26.882812 46.859375 -22.4375 C 46.859375 -14.863281 45.007812 -9.050781 41.3125 -5 C 37.625 -0.957031 32.175781 1.0625 24.96875 1.0625 C 17.757812 1.0625 12.304688 -0.957031 8.609375 -5 C 4.921875 -9.050781 3.078125 -14.863281 3.078125 -22.4375 L 3.078125 -28.84375 L 16.953125 -28.84375 L 16.953125 -21.5 C 16.953125 -18.113281 17.640625 -15.753906 19.015625 -14.421875 C 20.398438 -13.085938 22.25 -12.421875 24.5625 -12.421875 C 26.875 -12.421875 28.71875 -13.085938 30.09375 -14.421875 C 31.476562 -15.753906 32.171875 -18.113281 32.171875 -21.5 C 32.171875 -24.695312 31.457031 -27.519531 30.03125 -29.96875 C 28.613281 -32.414062 26.835938 -34.726562 24.703125 -36.90625 C 22.566406 -39.09375 20.273438 -41.273438 17.828125 -43.453125 C 15.378906 -45.640625 13.085938 -48.019531 10.953125 -50.59375 C 8.816406 -53.175781 7.035156 -56.113281 5.609375 -59.40625 C 4.179688 -62.707031 3.46875 -66.582031 3.46875 -71.03125 Z M 3.46875 -71.03125 "/></g></g></g><g fill="#000000" fill-opacity="1"><g transform="translate(433.16566, 97.927249)"><g><path d="M 24.5625 -37.25 L 20.03125 -28.703125 L 20.03125 0 L 5.34375 0 L 5.34375 -93.453125 L 20.03125 -93.453125 L 20.03125 -52.734375 L 39.515625 -93.453125 L 53.9375 -93.453125 L 33.515625 -51.796875 L 53.9375 0 L 38.859375 0 Z M 24.5625 -37.25 "/></g></g></g><g fill="#000000" fill-opacity="1"><g transform="translate(494.716222, 97.927249)"><g><path d="M 5.34375 -93.453125 L 20.03125 -93.453125 L 20.03125 0 L 5.34375 0 Z M 5.34375 -93.453125 "/></g></g></g><g fill="#000000" fill-opacity="1"><g transform="translate(526.359636, 97.927249)"><g><path d="M 5.34375 -93.453125 L 20.03125 -93.453125 L 20.03125 -13.34375 L 44.1875 -13.34375 L 44.1875 0 L 5.34375 0 Z M 5.34375 -93.453125 "/></g></g></g><g fill="#000000" fill-opacity="1"><g transform="translate(578.163679, 97.927249)"><g><path d="M 5.34375 -93.453125 L 20.03125 -93.453125 L 20.03125 -13.34375 L 44.1875 -13.34375 L 44.1875 0 L 5.34375 0 Z M 5.34375 -93.453125 "/></g></g></g><g fill="#000000" fill-opacity="1"><g transform="translate(629.967722, 97.927249)"><g><path d="M 3.46875 -71.03125 C 3.46875 -78.59375 5.269531 -84.398438 8.875 -88.453125 C 12.476562 -92.503906 17.882812 -94.53125 25.09375 -94.53125 C 32.3125 -94.53125 37.722656 -92.503906 41.328125 -88.453125 C 44.929688 -84.398438 46.734375 -78.59375 46.734375 -71.03125 L 46.734375 -67.421875 L 32.84375 -67.421875 L 32.84375 -71.96875 C 32.84375 -75.34375 32.195312 -77.71875 30.90625 -79.09375 C 29.613281 -80.476562 27.8125 -81.171875 25.5 -81.171875 C 23.1875 -81.171875 21.382812 -80.476562 20.09375 -79.09375 C 18.800781 -77.71875 18.15625 -75.34375 18.15625 -71.96875 C 18.15625 -68.757812 18.867188 -65.929688 20.296875 -63.484375 C 21.722656 -61.035156 23.503906 -58.71875 25.640625 -56.53125 C 27.773438 -54.351562 30.066406 -52.175781 32.515625 -50 C 34.960938 -47.820312 37.253906 -45.441406 39.390625 -42.859375 C 41.523438 -40.273438 43.300781 -37.335938 44.71875 -34.046875 C 46.144531 -30.753906 46.859375 -26.882812 46.859375 -22.4375 C 46.859375 -14.863281 45.007812 -9.050781 41.3125 -5 C 37.625 -0.957031 32.175781 1.0625 24.96875 1.0625 C 17.757812 1.0625 12.304688 -0.957031 8.609375 -5 C 4.921875 -9.050781 3.078125 -14.863281 3.078125 -22.4375 L 3.078125 -28.84375 L 16.953125 -28.84375 L 16.953125 -21.5 C 16.953125 -18.113281 17.640625 -15.753906 19.015625 -14.421875 C 20.398438 -13.085938 22.25 -12.421875 24.5625 -12.421875 C 26.875 -12.421875 28.71875 -13.085938 30.09375 -14.421875 C 31.476562 -15.753906 32.171875 -18.113281 32.171875 -21.5 C 32.171875 -24.695312 31.457031 -27.519531 30.03125 -29.96875 C 28.613281 -32.414062 26.835938 -34.726562 24.703125 -36.90625 C 22.566406 -39.09375 20.273438 -41.273438 17.828125 -43.453125 C 15.378906 -45.640625 13.085938 -48.019531 10.953125 -50.59375 C 8.816406 -53.175781 7.035156 -56.113281 5.609375 -59.40625 C 4.179688 -62.707031 3.46875 -66.582031 3.46875 -71.03125 Z M 3.46875 -71.03125 "/></g></g></g></g></g></svg>
